HIERARCHY
ROOT Hips
{
	OFFSET	0.00	0.00	0.00
	CHANNELS 6 Xposition Yposition Zposition Zrotation Xrotation Yrotation
	JOINT LeftUpLeg
	{
		OFFSET	 0.126116	-0.014019	-0.065224
		CHANNELS 3 Zrotation Xrotation Yrotation
		JOINT LeftLeg
		{
			OFFSET	 0.000000	 0.000000	 0.569914
			CHANNELS 3 Zrotation Xrotation Yrotation
			JOINT LeftFoot
			{
				OFFSET	 0.000000	 0.000000	 0.544423
				CHANNELS 3 Zrotation Xrotation Yrotation
				JOINT LeftToeBase
				{
					OFFSET	 0.000000	 0.000000	 0.207117
					CHANNELS 3 Zrotation Xrotation Yrotation
					End Site
					{
						OFFSET	 0.000000	 0.000000	 0.207117
					}
				}
			}
		}
	}
	JOINT RightUpLeg
	{
		OFFSET	-0.124023	-0.008373	-0.065224
		CHANNELS 3 Zrotation Xrotation Yrotation
		JOINT RightLeg
		{
			OFFSET	 0.000000	 0.000000	 0.570047
			CHANNELS 3 Zrotation Xrotation Yrotation
			JOINT RightFoot
			{
				OFFSET	 0.000000	 0.000000	 0.544354
				CHANNELS 3 Zrotation Xrotation Yrotation
				JOINT RightToeBase
				{
					OFFSET	 0.000000	 0.000000	 0.207540
					CHANNELS 3 Zrotation Xrotation Yrotation
					End Site
					{
						OFFSET	 0.000000	 0.000000	 0.207540
					}
				}
			}
		}
	}
	JOINT Spine
	{
		OFFSET	 0.000184	-0.007763	 0.117403
		CHANNELS 3 Zrotation Xrotation Yrotation
		JOINT Spine1
		{
			OFFSET	 0.000000	 0.000000	 0.137269
			CHANNELS 3 Zrotation Xrotation Yrotation
			JOINT Spine2
			{
				OFFSET	 0.000000	 0.000000	 0.156879
				CHANNELS 3 Zrotation Xrotation Yrotation
				JOINT LeftShoulder
				{
					OFFSET	 0.080501	-0.002496	 0.160144
					CHANNELS 3 Zrotation Xrotation Yrotation
					JOINT LeftArm
					{
						OFFSET	 0.000000	 0.000000	 0.164363
						CHANNELS 3 Zrotation Xrotation Yrotation
						JOINT LeftForeArm
						{
							OFFSET	 0.000000	 0.000000	 0.364576
							CHANNELS 3 Zrotation Xrotation Yrotation
							JOINT LeftHand
							{
								OFFSET	 0.000000	 0.000000	 0.360812
								CHANNELS 3 Zrotation Xrotation Yrotation
								JOINT LeftHandIndex1
								{
									OFFSET	 0.000000	 0.000000	 0.086006
									CHANNELS 3 Zrotation Xrotation Yrotation
									JOINT LeftHandIndex2
									{
										OFFSET	 0.000000	 0.000000	 0.047237
										CHANNELS 3 Zrotation Xrotation Yrotation
										JOINT LeftHandIndex3
										{
											OFFSET	-0.004284	-0.000551	 0.038165
											CHANNELS 3 Zrotation Xrotation Yrotation
											End Site
											{
												OFFSET	-0.004284	-0.000551	 0.038165
											}
										}
									}
								}
							}
						}
					}
				}
				JOINT Neck
				{
					OFFSET	 0.000000	 0.000000	 0.176489
					CHANNELS 3 Zrotation Xrotation Yrotation
					JOINT Head
					{
						OFFSET	 0.000000	-0.001747	 0.077940
						CHANNELS 3 Zrotation Xrotation Yrotation
						End Site
						{
							OFFSET	 0.000000	-0.001747	 0.077940
						}
					}
				}
				JOINT RightShoulder
				{
					OFFSET	-0.080363	 0.000306	 0.159706
					CHANNELS 3 Zrotation Xrotation Yrotation
					JOINT RightArm
					{
						OFFSET	 0.000000	 0.000000	 0.164196
						CHANNELS 3 Zrotation Xrotation Yrotation
						JOINT RightForeArm
						{
							OFFSET	 0.000000	 0.000000	 0.365611
							CHANNELS 3 Zrotation Xrotation Yrotation
							JOINT RightHand
							{
								OFFSET	 0.000000	 0.000000	 0.360648
								CHANNELS 3 Zrotation Xrotation Yrotation
								JOINT RightHandIndex1
								{
									OFFSET	 0.000000	 0.000000	 0.069977
									CHANNELS 3 Zrotation Xrotation Yrotation
									JOINT RightHandIndex2
									{
										OFFSET	 0.000000	 0.000000	 0.052305
										CHANNELS 3 Zrotation Xrotation Yrotation
										JOINT RightHandIndex3
										{
											OFFSET	 0.009002	-0.000782	 0.042196
											CHANNELS 3 Zrotation Xrotation Yrotation
											End Site
											{
												OFFSET	 0.009002	-0.000782	 0.042196
											}
										}
									}
								}
							}
						}
					}
				}
			}
		}
	}
}
MOTION
Frames:    4
Frame Time: 0.03333334
-0.720413	-0.006143	 1.272773	-177.200600	-5.460515	 0.241351	 15.589320	 4.186302	 174.958600	-3.660025	-8.707166	-0.777672	-14.915250	 70.035600	 6.072765	-2.385833	 28.452760	 0.000004	-15.224510	 3.620966	-176.187500	 1.700297	-11.520630	 0.383750	 13.294150	 72.017420	-7.486218	 2.384659	 28.388700	-0.000001	 0.372123	 6.125556	-2.140651	 1.249828	 11.427620	 5.749240	-5.774183	-9.560206	-6.334411	-91.776160	 78.527380	 180.000000	-10.469620	-2.376758	-1.255690	-13.862820	-2.385577	-27.739300	 0.211226	-23.940250	-2.455372	-4.130354	 21.526190	 0.991307	-5.167926	 0.731697	 3.519349	-1.378229	 35.397820	-2.634230	-7.773243	 0.823031	 3.237041	-5.245152	-16.361470	-4.317592	 89.782160	 78.203870	 179.999900	 22.351530	-5.701620	 9.768882	 6.917599	-1.439966	 16.102590	 25.759300	 35.283280	 10.323720	 5.716295	 19.173350	-3.684826	 5.027458	 0.246833	-9.377971	-2.350882	 35.473990	 5.254307
-0.720222	-0.006161	 1.272831	-177.039500	-5.720485	 0.256599	 16.516980	 4.312093	 174.696900	-4.252488	-8.787154	-0.876059	-13.277910	 69.412240	 5.030757	-2.385833	 28.452760	 0.000004	-15.712970	 3.975495	-176.049300	 2.132927	-11.387900	 0.464921	 12.460990	 71.169320	-7.086240	 2.384659	 28.388700	-0.000001	 0.315610	 6.293115	-2.276267	 1.285050	 11.870940	 6.078724	-6.128241	-10.001690	-6.733473	-91.776120	 78.527400	 180.000000	-10.580280	-1.565417	-0.304108	-14.199630	-2.393330	-29.695090	-0.425268	-24.512880	-2.451814	-4.130354	 21.526190	 0.991307	-5.167926	 0.731697	 3.519349	-1.378229	 35.397820	-2.634230	-8.125877	 0.991721	 3.509362	-5.540837	-16.755850	-4.705043	 89.782090	 78.203900	-180.000000	 23.503210	-4.886141	 8.722622	 7.353526	-1.556654	 18.892270	 29.098160	 37.025230	 7.553078	 5.716295	 19.173350	-3.684826	 5.027458	 0.246833	-9.377971	-2.350882	 35.473990	 5.254307
-0.720050	-0.006184	 1.272872	-176.892800	-5.960990	 0.268191	 17.363130	 4.407307	 174.449700	-4.794430	-8.903059	-0.972297	-11.829800	 68.867970	 4.122042	-2.385833	 28.452760	 0.000004	-16.157990	 4.241932	-175.912700	 2.529307	-11.399660	 0.543890	 11.771350	 70.465450	-6.796388	 2.384659	 28.388700	-0.000001	 0.254076	 6.457375	-2.391264	 1.311106	 12.253810	 6.366431	-6.454020	-10.394190	-7.093891	-91.776120	 78.527420	 180.000000	-10.642320	-0.732854	 0.676001	-14.512920	-2.397099	-31.699320	-1.005510	-25.048310	-2.456304	-4.130354	 21.526190	 0.991307	-5.167926	 0.731697	 3.519349	-1.378229	 35.397820	-2.634230	-8.449791	 1.143537	 3.760911	-5.814710	-17.113730	-5.066602	 89.782140	 78.203870	 180.000000	 24.654220	-4.030492	 7.702610	 7.756234	-1.641663	 21.614960	 32.484380	 38.319800	 4.626393	 5.716295	 19.173350	-3.684826	 5.027458	 0.246833	-9.377971	-2.350882	 35.473990	 5.254307
-0.719563	-0.006266	 1.272917	-176.466400	-6.683177	 0.287955	 19.811940	 4.572243	 173.679100	-6.380294	-9.497173	-1.302165	-7.839824	 67.439160	 1.679705	-2.385833	 28.452760	 0.000004	-17.461250	 4.936252	-175.452100	 3.688565	-11.703140	 0.794086	 9.931195	 68.584100	-6.130880	 2.384659	 28.388700	-0.000001	 0.011772	 7.000199	-2.677529	 1.344823	 13.241790	 7.137861	-7.412894	-11.477240	-8.123169	-91.776150	 78.527360	 180.000000	-10.600010	 2.253775	 4.079650	-15.440440	-2.354564	-38.605270	-2.689337	-26.673290	-2.515374	-4.130354	 21.526190	 0.991307	-5.167926	 0.731697	 3.519349	-1.378229	 35.397820	-2.634230	-9.402612	 1.572633	 4.508423	-6.633138	-18.141470	-6.161567	 89.782080	 78.203850	-180.000000	 28.512770	-0.865666	 4.379001	 8.932638	-1.737116	 30.392570	 43.772200	 40.026790	-5.574309	 5.716295	 19.173350	-3.684826	 5.027458	 0.246833	-9.377971	-2.350882	 35.473990	 5.254307
